<?xml version="1.0" encoding="utf-8"?>
<svg xmlns="http://www.w3.org/2000/svg" xmlns:xlink="http://www.w3.org/1999/xlink" width="509" height="336" viewBox="0 0 2036 1344">
<defs>
  <clipPath id="clip700">
    <rect x="0" y="0" width="2036" height="1344"/>
  </clipPath>
</defs>
<path clip-path="url(#clip700)" d="M0 1344 L2036 1344 L2036 6.26079e-14 L0 6.26079e-14  Z" fill="#ffffff" fill-rule="evenodd" fill-opacity="1"/>
<defs>
  <clipPath id="clip701">
    <rect x="358" y="62" width="1616" height="937"/>
  </clipPath>
</defs>
<path clip-path="url(#clip700)" d="M358.18 998.871 L1973.01 998.871 L1973.01 62.9921 L358.18 62.9921  Z" fill="#ffffff" fill-rule="evenodd" fill-opacity="1"/>
<polyline clip-path="url(#clip701)" style="stroke:#000000; stroke-linecap:round; stroke-linejoin:round; stroke-width:2; stroke-opacity:0.1; fill:none" points="396.927,998.871 396.927,62.9921 "/>
<polyline clip-path="url(#clip701)" style="stroke:#000000; stroke-linecap:round; stroke-linejoin:round; stroke-width:2; stroke-opacity:0.1; fill:none" points="744.74,998.871 744.74,62.9921 "/>
<polyline clip-path="url(#clip701)" style="stroke:#000000; stroke-linecap:round; stroke-linejoin:round; stroke-width:2; stroke-opacity:0.1; fill:none" points="1092.55,998.871 1092.55,62.9921 "/>
<polyline clip-path="url(#clip701)" style="stroke:#000000; stroke-linecap:round; stroke-linejoin:round; stroke-width:2; stroke-opacity:0.1; fill:none" points="1440.37,998.871 1440.37,62.9921 "/>
<polyline clip-path="url(#clip701)" style="stroke:#000000; stroke-linecap:round; stroke-linejoin:round; stroke-width:2; stroke-opacity:0.1; fill:none" points="1788.18,998.871 1788.18,62.9921 "/>
<polyline clip-path="url(#clip701)" style="stroke:#000000; stroke-linecap:round; stroke-linejoin:round; stroke-width:2; stroke-opacity:0.1; fill:none" points="396.927,998.871 396.927,62.9921 "/>
<polyline clip-path="url(#clip701)" style="stroke:#000000; stroke-linecap:round; stroke-linejoin:round; stroke-width:2; stroke-opacity:0.1; fill:none" points="744.74,998.871 744.74,62.9921 "/>
<polyline clip-path="url(#clip701)" style="stroke:#000000; stroke-linecap:round; stroke-linejoin:round; stroke-width:2; stroke-opacity:0.1; fill:none" points="1092.55,998.871 1092.55,62.9921 "/>
<polyline clip-path="url(#clip701)" style="stroke:#000000; stroke-linecap:round; stroke-linejoin:round; stroke-width:2; stroke-opacity:0.1; fill:none" points="1440.37,998.871 1440.37,62.9921 "/>
<polyline clip-path="url(#clip701)" style="stroke:#000000; stroke-linecap:round; stroke-linejoin:round; stroke-width:2; stroke-opacity:0.1; fill:none" points="1788.18,998.871 1788.18,62.9921 "/>
<polyline clip-path="url(#clip701)" style="stroke:#000000; stroke-linecap:round; stroke-linejoin:round; stroke-width:2; stroke-opacity:0.1; fill:none" points="358.18,838.223 1973.01,838.223 "/>
<polyline clip-path="url(#clip701)" style="stroke:#000000; stroke-linecap:round; stroke-linejoin:round; stroke-width:2; stroke-opacity:0.1; fill:none" points="358.18,216.513 1973.01,216.513 "/>
<polyline clip-path="url(#clip701)" style="stroke:#000000; stroke-linecap:round; stroke-linejoin:round; stroke-width:2; stroke-opacity:0.1; fill:none" points="358.18,838.223 1973.01,838.223 "/>
<polyline clip-path="url(#clip701)" style="stroke:#000000; stroke-linecap:round; stroke-linejoin:round; stroke-width:2; stroke-opacity:0.1; fill:none" points="358.18,216.513 1973.01,216.513 "/>
<polyline clip-path="url(#clip700)" style="stroke:#000000; stroke-linecap:round; stroke-linejoin:round; stroke-width:4; stroke-opacity:1; fill:none" points="358.18,998.871 1973.01,998.871 "/>
<polyline clip-path="url(#clip700)" style="stroke:#000000; stroke-linecap:round; stroke-linejoin:round; stroke-width:4; stroke-opacity:1; fill:none" points="358.18,62.9921 1973.01,62.9921 "/>
<polyline clip-path="url(#clip700)" style="stroke:#000000; stroke-linecap:round; stroke-linejoin:round; stroke-width:4; stroke-opacity:1; fill:none" points="396.927,998.871 396.927,979.973 "/>
<polyline clip-path="url(#clip700)" style="stroke:#000000; stroke-linecap:round; stroke-linejoin:round; stroke-width:4; stroke-opacity:1; fill:none" points="744.74,998.871 744.74,979.973 "/>
<polyline clip-path="url(#clip700)" style="stroke:#000000; stroke-linecap:round; stroke-linejoin:round; stroke-width:4; stroke-opacity:1; fill:none" points="1092.55,998.871 1092.55,979.973 "/>
<polyline clip-path="url(#clip700)" style="stroke:#000000; stroke-linecap:round; stroke-linejoin:round; stroke-width:4; stroke-opacity:1; fill:none" points="1440.37,998.871 1440.37,979.973 "/>
<polyline clip-path="url(#clip700)" style="stroke:#000000; stroke-linecap:round; stroke-linejoin:round; stroke-width:4; stroke-opacity:1; fill:none" points="1788.18,998.871 1788.18,979.973 "/>
<polyline clip-path="url(#clip700)" style="stroke:#000000; stroke-linecap:round; stroke-linejoin:round; stroke-width:4; stroke-opacity:1; fill:none" points="396.927,62.9921 396.927,81.8898 "/>
<polyline clip-path="url(#clip700)" style="stroke:#000000; stroke-linecap:round; stroke-linejoin:round; stroke-width:4; stroke-opacity:1; fill:none" points="744.74,62.9921 744.74,81.8898 "/>
<polyline clip-path="url(#clip700)" style="stroke:#000000; stroke-linecap:round; stroke-linejoin:round; stroke-width:4; stroke-opacity:1; fill:none" points="1092.55,62.9921 1092.55,81.8898 "/>
<polyline clip-path="url(#clip700)" style="stroke:#000000; stroke-linecap:round; stroke-linejoin:round; stroke-width:4; stroke-opacity:1; fill:none" points="1440.37,62.9921 1440.37,81.8898 "/>
<polyline clip-path="url(#clip700)" style="stroke:#000000; stroke-linecap:round; stroke-linejoin:round; stroke-width:4; stroke-opacity:1; fill:none" points="1788.18,62.9921 1788.18,81.8898 "/>
<path clip-path="url(#clip700)" d="M396.927 1032.74 Q391.51 1032.74 388.767 1038.08 Q386.059 1043.4 386.059 1054.09 Q386.059 1064.75 388.767 1070.1 Q391.51 1075.41 396.927 1075.41 Q402.378 1075.41 405.086 1070.1 Q407.829 1064.75 407.829 1054.09 Q407.829 1043.4 405.086 1038.08 Q402.378 1032.74 396.927 1032.74 M396.927 1027.18 Q405.642 1027.18 410.225 1034.09 Q414.843 1040.97 414.843 1054.09 Q414.843 1067.18 410.225 1074.09 Q405.642 1080.97 396.927 1080.97 Q388.211 1080.97 383.593 1074.09 Q379.01 1067.18 379.01 1054.09 Q379.01 1040.97 383.593 1034.09 Q388.211 1027.18 396.927 1027.18 Z" fill="#000000" fill-rule="nonzero" fill-opacity="1" /><path clip-path="url(#clip700)" d="M706.789 1028.12 L734.323 1028.12 L734.323 1034.02 L713.212 1034.02 L713.212 1046.73 Q714.74 1046.21 716.268 1045.97 Q717.796 1045.69 719.323 1045.69 Q728.004 1045.69 733.073 1050.45 Q738.143 1055.2 738.143 1063.33 Q738.143 1071.7 732.934 1076.35 Q727.726 1080.97 718.247 1080.97 Q714.983 1080.97 711.58 1080.41 Q708.212 1079.85 704.601 1078.74 L704.601 1071.7 Q707.726 1073.4 711.06 1074.23 Q714.393 1075.06 718.108 1075.06 Q724.115 1075.06 727.622 1071.9 Q731.129 1068.74 731.129 1063.33 Q731.129 1057.91 727.622 1054.75 Q724.115 1051.59 718.108 1051.59 Q715.296 1051.59 712.483 1052.22 Q709.705 1052.84 706.789 1054.16 L706.789 1028.12 Z" fill="#000000" fill-rule="nonzero" fill-opacity="1" /><path clip-path="url(#clip700)" d="M766.962 1032.74 Q761.545 1032.74 758.802 1038.08 Q756.094 1043.4 756.094 1054.09 Q756.094 1064.75 758.802 1070.1 Q761.545 1075.41 766.962 1075.41 Q772.413 1075.41 775.122 1070.1 Q777.865 1064.75 777.865 1054.09 Q777.865 1043.4 775.122 1038.08 Q772.413 1032.74 766.962 1032.74 M766.962 1027.18 Q775.677 1027.18 780.261 1034.09 Q784.879 1040.97 784.879 1054.09 Q784.879 1067.18 780.261 1074.09 Q775.677 1080.97 766.962 1080.97 Q758.247 1080.97 753.629 1074.09 Q749.046 1067.18 749.046 1054.09 Q749.046 1040.97 753.629 1034.09 Q758.247 1027.18 766.962 1027.18 Z" fill="#000000" fill-rule="nonzero" fill-opacity="1" /><path clip-path="url(#clip700)" d="M1031.96 1074.06 L1043.42 1074.06 L1043.42 1034.51 L1030.96 1037.01 L1030.96 1030.62 L1043.35 1028.12 L1050.37 1028.12 L1050.37 1074.06 L1061.82 1074.06 L1061.82 1079.96 L1031.96 1079.96 L1031.96 1074.06 Z" fill="#000000" fill-rule="nonzero" fill-opacity="1" /><path clip-path="url(#clip700)" d="M1090.99 1032.74 Q1085.57 1032.74 1082.83 1038.08 Q1080.12 1043.4 1080.12 1054.09 Q1080.12 1064.75 1082.83 1070.1 Q1085.57 1075.41 1090.99 1075.41 Q1096.44 1075.41 1099.15 1070.1 Q1101.89 1064.75 1101.89 1054.09 Q1101.89 1043.4 1099.15 1038.08 Q1096.44 1032.74 1090.99 1032.74 M1090.99 1027.18 Q1099.71 1027.18 1104.29 1034.09 Q1108.91 1040.97 1108.91 1054.09 Q1108.91 1067.18 1104.29 1074.09 Q1099.71 1080.97 1090.99 1080.97 Q1082.28 1080.97 1077.66 1074.09 Q1073.07 1067.18 1073.07 1054.09 Q1073.07 1040.97 1077.66 1034.09 Q1082.28 1027.18 1090.99 1027.18 Z" fill="#000000" fill-rule="nonzero" fill-opacity="1" /><path clip-path="url(#clip700)" d="M1136.23 1032.74 Q1130.82 1032.74 1128.07 1038.08 Q1125.37 1043.4 1125.37 1054.09 Q1125.37 1064.75 1128.07 1070.1 Q1130.82 1075.41 1136.23 1075.41 Q1141.68 1075.41 1144.39 1070.1 Q1147.14 1064.75 1147.14 1054.09 Q1147.14 1043.4 1144.39 1038.08 Q1141.68 1032.74 1136.23 1032.74 M1136.23 1027.18 Q1144.95 1027.18 1149.53 1034.09 Q1154.15 1040.97 1154.15 1054.09 Q1154.15 1067.18 1149.53 1074.09 Q1144.95 1080.97 1136.23 1080.97 Q1127.52 1080.97 1122.9 1074.09 Q1118.32 1067.18 1118.32 1054.09 Q1118.32 1040.97 1122.9 1034.09 Q1127.52 1027.18 1136.23 1027.18 Z" fill="#000000" fill-rule="nonzero" fill-opacity="1" /><path clip-path="url(#clip700)" d="M1379.78 1074.06 L1391.23 1074.06 L1391.23 1034.51 L1378.77 1037.01 L1378.77 1030.62 L1391.17 1028.12 L1398.18 1028.12 L1398.18 1074.06 L1409.64 1074.06 L1409.64 1079.96 L1379.78 1079.96 L1379.78 1074.06 Z" fill="#000000" fill-rule="nonzero" fill-opacity="1" /><path clip-path="url(#clip700)" d="M1423.87 1028.12 L1451.41 1028.12 L1451.41 1034.02 L1430.3 1034.02 L1430.3 1046.73 Q1431.82 1046.21 1433.35 1045.97 Q1434.88 1045.69 1436.41 1045.69 Q1445.09 1045.69 1450.16 1050.45 Q1455.23 1055.2 1455.23 1063.33 Q1455.23 1071.7 1450.02 1076.35 Q1444.81 1080.97 1435.33 1080.97 Q1432.07 1080.97 1428.67 1080.41 Q1425.3 1079.85 1421.69 1078.74 L1421.69 1071.7 Q1424.81 1073.4 1428.14 1074.23 Q1431.48 1075.06 1435.19 1075.06 Q1441.2 1075.06 1444.71 1071.9 Q1448.21 1068.74 1448.21 1063.33 Q1448.21 1057.91 1444.71 1054.75 Q1441.2 1051.59 1435.19 1051.59 Q1432.38 1051.59 1429.57 1052.22 Q1426.79 1052.84 1423.87 1054.16 L1423.87 1028.12 Z" fill="#000000" fill-rule="nonzero" fill-opacity="1" /><path clip-path="url(#clip700)" d="M1484.05 1032.74 Q1478.63 1032.74 1475.89 1038.08 Q1473.18 1043.4 1473.18 1054.09 Q1473.18 1064.75 1475.89 1070.1 Q1478.63 1075.41 1484.05 1075.41 Q1489.5 1075.41 1492.21 1070.1 Q1494.95 1064.75 1494.95 1054.09 Q1494.95 1043.4 1492.21 1038.08 Q1489.5 1032.74 1484.05 1032.74 M1484.05 1027.18 Q1492.76 1027.18 1497.35 1034.09 Q1501.96 1040.97 1501.96 1054.09 Q1501.96 1067.18 1497.35 1074.09 Q1492.76 1080.97 1484.05 1080.97 Q1475.33 1080.97 1470.71 1074.09 Q1466.13 1067.18 1466.13 1054.09 Q1466.13 1040.97 1470.71 1034.09 Q1475.33 1027.18 1484.05 1027.18 Z" fill="#000000" fill-rule="nonzero" fill-opacity="1" /><path clip-path="url(#clip700)" d="M1733.72 1074.06 L1758.2 1074.06 L1758.2 1079.96 L1725.28 1079.96 L1725.28 1074.06 Q1729.27 1069.92 1736.15 1062.98 Q1743.06 1056 1744.83 1053.99 Q1748.2 1050.2 1749.52 1047.6 Q1750.87 1044.96 1750.87 1042.42 Q1750.87 1038.29 1747.95 1035.69 Q1745.07 1033.08 1740.42 1033.08 Q1737.12 1033.08 1733.44 1034.23 Q1729.79 1035.38 1725.63 1037.7 L1725.63 1030.62 Q1729.86 1028.92 1733.54 1028.05 Q1737.23 1027.18 1740.28 1027.18 Q1748.34 1027.18 1753.13 1031.21 Q1757.92 1035.24 1757.92 1041.97 Q1757.92 1045.17 1756.7 1048.05 Q1755.52 1050.9 1752.36 1054.79 Q1751.5 1055.79 1746.84 1060.62 Q1742.19 1065.41 1733.72 1074.06 Z" fill="#000000" fill-rule="nonzero" fill-opacity="1" /><path clip-path="url(#clip700)" d="M1787.92 1032.74 Q1782.5 1032.74 1779.76 1038.08 Q1777.05 1043.4 1777.05 1054.09 Q1777.05 1064.75 1779.76 1070.1 Q1782.5 1075.41 1787.92 1075.41 Q1793.37 1075.41 1796.08 1070.1 Q1798.82 1064.75 1798.82 1054.09 Q1798.82 1043.4 1796.08 1038.08 Q1793.37 1032.74 1787.92 1032.74 M1787.92 1027.18 Q1796.63 1027.18 1801.22 1034.09 Q1805.84 1040.97 1805.84 1054.09 Q1805.84 1067.18 1801.22 1074.09 Q1796.63 1080.97 1787.92 1080.97 Q1779.2 1080.97 1774.59 1074.09 Q1770 1067.18 1770 1054.09 Q1770 1040.97 1774.59 1034.09 Q1779.2 1027.18 1787.92 1027.18 Z" fill="#000000" fill-rule="nonzero" fill-opacity="1" /><path clip-path="url(#clip700)" d="M1833.16 1032.74 Q1827.75 1032.74 1825 1038.08 Q1822.29 1043.4 1822.29 1054.09 Q1822.29 1064.75 1825 1070.1 Q1827.75 1075.41 1833.16 1075.41 Q1838.61 1075.41 1841.32 1070.1 Q1844.07 1064.75 1844.07 1054.09 Q1844.07 1043.4 1841.32 1038.08 Q1838.61 1032.74 1833.16 1032.74 M1833.16 1027.18 Q1841.88 1027.18 1846.46 1034.09 Q1851.08 1040.97 1851.08 1054.09 Q1851.08 1067.18 1846.46 1074.09 Q1841.88 1080.97 1833.16 1080.97 Q1824.45 1080.97 1819.83 1074.09 Q1815.25 1067.18 1815.25 1054.09 Q1815.25 1040.97 1819.83 1034.09 Q1824.45 1027.18 1833.16 1027.18 Z" fill="#000000" fill-rule="nonzero" fill-opacity="1" /><path clip-path="url(#clip700)" d="M997.785 1134.38 L1005.24 1134.38 L1005.24 1179.75 L997.785 1179.75 L997.785 1134.38 M997.785 1116.71 L1005.24 1116.71 L1005.24 1126.15 L997.785 1126.15 L997.785 1116.71 Z" fill="#000000" fill-rule="nonzero" fill-opacity="1" /><path clip-path="url(#clip700)" d="M1028.21 1121.49 L1028.21 1134.38 L1043.56 1134.38 L1043.56 1140.17 L1028.21 1140.17 L1028.21 1164.8 Q1028.21 1170.35 1029.71 1171.93 Q1031.25 1173.51 1035.9 1173.51 L1043.56 1173.51 L1043.56 1179.75 L1035.9 1179.75 Q1027.28 1179.75 1023.99 1176.55 Q1020.71 1173.31 1020.71 1164.8 L1020.71 1140.17 L1015.24 1140.17 L1015.24 1134.38 L1020.71 1134.38 L1020.71 1121.49 L1028.21 1121.49 Z" fill="#000000" fill-rule="nonzero" fill-opacity="1" /><path clip-path="url(#clip700)" d="M1092.17 1155.2 L1092.17 1158.84 L1057.9 1158.84 Q1058.39 1166.54 1062.52 1170.59 Q1066.69 1174.6 1074.1 1174.6 Q1078.4 1174.6 1082.41 1173.55 Q1086.46 1172.5 1090.43 1170.39 L1090.43 1177.44 Q1086.42 1179.14 1082.21 1180.03 Q1077.99 1180.92 1073.66 1180.92 Q1062.8 1180.92 1056.44 1174.6 Q1050.12 1168.28 1050.12 1157.51 Q1050.12 1146.37 1056.12 1139.85 Q1062.15 1133.28 1072.36 1133.28 Q1081.52 1133.28 1086.82 1139.2 Q1092.17 1145.07 1092.17 1155.2 M1084.72 1153.01 Q1084.64 1146.89 1081.27 1143.25 Q1077.95 1139.6 1072.44 1139.6 Q1066.21 1139.6 1062.44 1143.13 Q1058.71 1146.65 1058.14 1153.05 L1084.72 1153.01 Z" fill="#000000" fill-rule="nonzero" fill-opacity="1" /><path clip-path="url(#clip700)" d="M1130.7 1141.34 Q1129.44 1140.62 1127.94 1140.29 Q1126.48 1139.93 1124.7 1139.93 Q1118.38 1139.93 1114.98 1144.06 Q1111.62 1148.15 1111.62 1155.85 L1111.62 1179.75 L1104.12 1179.75 L1104.12 1134.38 L1111.62 1134.38 L1111.62 1141.43 Q1113.97 1137.29 1117.73 1135.31 Q1121.5 1133.28 1126.89 1133.28 Q1127.66 1133.28 1128.59 1133.4 Q1129.52 1133.49 1130.66 1133.69 L1130.7 1141.34 Z" fill="#000000" fill-rule="nonzero" fill-opacity="1" /><path clip-path="url(#clip700)" d="M1159.13 1156.94 Q1150.1 1156.94 1146.62 1159.01 Q1143.13 1161.07 1143.13 1166.05 Q1143.13 1170.02 1145.72 1172.37 Q1148.36 1174.68 1152.85 1174.68 Q1159.05 1174.68 1162.78 1170.31 Q1166.55 1165.89 1166.55 1158.6 L1166.55 1156.94 L1159.13 1156.94 M1174 1153.86 L1174 1179.75 L1166.55 1179.75 L1166.55 1172.86 Q1163.99 1176.99 1160.19 1178.98 Q1156.38 1180.92 1150.87 1180.92 Q1143.9 1180.92 1139.77 1177.03 Q1135.68 1173.1 1135.68 1166.54 Q1135.68 1158.88 1140.78 1155 Q1145.93 1151.11 1156.09 1151.11 L1166.55 1151.11 L1166.55 1150.38 Q1166.55 1145.23 1163.14 1142.44 Q1159.78 1139.6 1153.66 1139.6 Q1149.78 1139.6 1146.09 1140.53 Q1142.4 1141.47 1139 1143.33 L1139 1136.44 Q1143.09 1134.86 1146.94 1134.09 Q1150.79 1133.28 1154.43 1133.28 Q1164.28 1133.28 1169.14 1138.39 Q1174 1143.49 1174 1153.86 Z" fill="#000000" fill-rule="nonzero" fill-opacity="1" /><path clip-path="url(#clip700)" d="M1196.73 1121.49 L1196.73 1134.38 L1212.08 1134.38 L1212.08 1140.17 L1196.73 1140.17 L1196.73 1164.8 Q1196.73 1170.35 1198.22 1171.93 Q1199.76 1173.51 1204.42 1173.51 L1212.08 1173.51 L1212.08 1179.75 L1204.42 1179.75 Q1195.79 1179.75 1192.51 1176.55 Q1189.23 1173.31 1189.23 1164.8 L1189.23 1140.17 L1183.76 1140.17 L1183.76 1134.38 L1189.23 1134.38 L1189.23 1121.49 L1196.73 1121.49 Z" fill="#000000" fill-rule="nonzero" fill-opacity="1" /><path clip-path="url(#clip700)" d="M1221.88 1134.38 L1229.34 1134.38 L1229.34 1179.75 L1221.88 1179.75 L1221.88 1134.38 M1221.88 1116.71 L1229.34 1116.71 L1229.34 1126.15 L1221.88 1126.15 L1221.88 1116.71 Z" fill="#000000" fill-rule="nonzero" fill-opacity="1" /><path clip-path="url(#clip700)" d="M1262.51 1139.6 Q1256.52 1139.6 1253.03 1144.3 Q1249.55 1148.96 1249.55 1157.1 Q1249.55 1165.24 1252.99 1169.94 Q1256.48 1174.6 1262.51 1174.6 Q1268.47 1174.6 1271.95 1169.9 Q1275.43 1165.2 1275.43 1157.1 Q1275.43 1149.04 1271.95 1144.34 Q1268.47 1139.6 1262.51 1139.6 M1262.51 1133.28 Q1272.23 1133.28 1277.78 1139.6 Q1283.33 1145.92 1283.33 1157.1 Q1283.33 1168.24 1277.78 1174.6 Q1272.23 1180.92 1262.51 1180.92 Q1252.75 1180.92 1247.2 1174.6 Q1241.69 1168.24 1241.69 1157.1 Q1241.69 1145.92 1247.2 1139.6 Q1252.75 1133.28 1262.51 1133.28 Z" fill="#000000" fill-rule="nonzero" fill-opacity="1" /><path clip-path="url(#clip700)" d="M1333.4 1152.36 L1333.4 1179.75 L1325.95 1179.75 L1325.95 1152.61 Q1325.95 1146.16 1323.44 1142.96 Q1320.93 1139.76 1315.9 1139.76 Q1309.87 1139.76 1306.38 1143.61 Q1302.9 1147.46 1302.9 1154.1 L1302.9 1179.75 L1295.41 1179.75 L1295.41 1134.38 L1302.9 1134.38 L1302.9 1141.43 Q1305.57 1137.33 1309.18 1135.31 Q1312.82 1133.28 1317.56 1133.28 Q1325.38 1133.28 1329.39 1138.14 Q1333.4 1142.96 1333.4 1152.36 Z" fill="#000000" fill-rule="nonzero" fill-opacity="1" /><polyline clip-path="url(#clip700)" style="stroke:#000000; stroke-linecap:round; stroke-linejoin:round; stroke-width:4; stroke-opacity:1; fill:none" points="358.18,998.871 358.18,62.9921 "/>
<polyline clip-path="url(#clip700)" style="stroke:#000000; stroke-linecap:round; stroke-linejoin:round; stroke-width:4; stroke-opacity:1; fill:none" points="1973.01,998.871 1973.01,62.9921 "/>
<polyline clip-path="url(#clip700)" style="stroke:#000000; stroke-linecap:round; stroke-linejoin:round; stroke-width:4; stroke-opacity:1; fill:none" points="358.18,838.223 377.078,838.223 "/>
<polyline clip-path="url(#clip700)" style="stroke:#000000; stroke-linecap:round; stroke-linejoin:round; stroke-width:4; stroke-opacity:1; fill:none" points="358.18,216.513 377.078,216.513 "/>
<polyline clip-path="url(#clip700)" style="stroke:#000000; stroke-linecap:round; stroke-linejoin:round; stroke-width:4; stroke-opacity:1; fill:none" points="1973.01,838.223 1954.11,838.223 "/>
<polyline clip-path="url(#clip700)" style="stroke:#000000; stroke-linecap:round; stroke-linejoin:round; stroke-width:4; stroke-opacity:1; fill:none" points="1973.01,216.513 1954.11,216.513 "/>
<path clip-path="url(#clip700)" d="M176.697 867.912 L188.155 867.912 L188.155 828.364 L175.69 830.864 L175.69 824.475 L188.086 821.975 L195.1 821.975 L195.1 867.912 L206.558 867.912 L206.558 873.815 L176.697 873.815 L176.697 867.912 Z" fill="#000000" fill-rule="nonzero" fill-opacity="1" /><path clip-path="url(#clip700)" d="M235.725 826.593 Q230.308 826.593 227.565 831.94 Q224.857 837.253 224.857 847.947 Q224.857 858.607 227.565 863.954 Q230.308 869.266 235.725 869.266 Q241.176 869.266 243.884 863.954 Q246.627 858.607 246.627 847.947 Q246.627 837.253 243.884 831.94 Q241.176 826.593 235.725 826.593 M235.725 821.037 Q244.44 821.037 249.023 827.947 Q253.641 834.822 253.641 847.947 Q253.641 861.037 249.023 867.947 Q244.44 874.822 235.725 874.822 Q227.009 874.822 222.391 867.947 Q217.808 861.037 217.808 847.947 Q217.808 834.822 222.391 827.947 Q227.009 821.037 235.725 821.037 Z" fill="#000000" fill-rule="nonzero" fill-opacity="1" /><path clip-path="url(#clip700)" d="M253.641 812.189 L289.808 812.189 L289.808 816.985 L253.641 816.985 L253.641 812.189 Z" fill="#000000" fill-rule="nonzero" fill-opacity="1" /><path clip-path="url(#clip700)" d="M302.165 790.579 L324.537 790.579 L324.537 795.375 L307.384 795.375 L307.384 805.701 Q308.626 805.278 309.867 805.08 Q311.108 804.854 312.35 804.854 Q319.402 804.854 323.521 808.719 Q327.64 812.584 327.64 819.186 Q327.64 825.985 323.409 829.765 Q319.177 833.517 311.475 833.517 Q308.823 833.517 306.058 833.066 Q303.322 832.615 300.388 831.712 L300.388 825.985 Q302.927 827.367 305.635 828.044 Q308.344 828.721 311.362 828.721 Q316.243 828.721 319.092 826.154 Q321.942 823.587 321.942 819.186 Q321.942 814.785 319.092 812.218 Q316.243 809.65 311.362 809.65 Q309.077 809.65 306.792 810.158 Q304.535 810.666 302.165 811.738 L302.165 790.579 Z" fill="#000000" fill-rule="nonzero" fill-opacity="1" /><path clip-path="url(#clip700)" d="M221.582 246.201 L233.04 246.201 L233.04 206.653 L220.575 209.153 L220.575 202.764 L232.971 200.264 L239.985 200.264 L239.985 246.201 L251.443 246.201 L251.443 252.104 L221.582 252.104 L221.582 246.201 Z" fill="#000000" fill-rule="nonzero" fill-opacity="1" /><path clip-path="url(#clip700)" d="M280.609 204.882 Q275.193 204.882 272.45 210.229 Q269.741 215.542 269.741 226.236 Q269.741 236.896 272.45 242.243 Q275.193 247.556 280.609 247.556 Q286.061 247.556 288.769 242.243 Q291.512 236.896 291.512 226.236 Q291.512 215.542 288.769 210.229 Q286.061 204.882 280.609 204.882 M280.609 199.327 Q289.325 199.327 293.908 206.236 Q298.526 213.111 298.526 226.236 Q298.526 239.327 293.908 246.236 Q289.325 253.111 280.609 253.111 Q271.894 253.111 267.276 246.236 Q262.693 239.327 262.693 226.236 Q262.693 213.111 267.276 206.236 Q271.894 199.327 280.609 199.327 Z" fill="#000000" fill-rule="nonzero" fill-opacity="1" /><path clip-path="url(#clip700)" d="M313.083 172.621 Q308.682 172.621 306.453 176.965 Q304.253 181.282 304.253 189.971 Q304.253 198.632 306.453 202.977 Q308.682 207.293 313.083 207.293 Q317.512 207.293 319.713 202.977 Q321.942 198.632 321.942 189.971 Q321.942 181.282 319.713 176.965 Q317.512 172.621 313.083 172.621 M313.083 168.107 Q320.164 168.107 323.888 173.721 Q327.64 179.307 327.64 189.971 Q327.64 200.607 323.888 206.221 Q320.164 211.807 313.083 211.807 Q306.002 211.807 302.25 206.221 Q298.526 200.607 298.526 189.971 Q298.526 179.307 302.25 173.721 Q306.002 168.107 313.083 168.107 Z" fill="#000000" fill-rule="nonzero" fill-opacity="1" /><path clip-path="url(#clip700)" d="M137.336 585.191 Q137.008 585.191 134.877 584.084 Q132.705 582.978 124.958 579.084 Q117.17 575.19 109.013 571.173 L79.9104 556.704 Q78.0659 555.679 78.0659 554.367 Q78.0659 553.178 78.8037 552.646 Q79.5415 552.113 84.5012 549.653 Q86.9196 548.383 88.4772 547.645 L135.984 523.912 Q137.008 523.502 137.336 523.461 Q138.156 523.461 138.156 524.896 L138.156 582.978 Q138.156 585.191 137.336 585.191 M131.762 579.658 L131.762 534.487 L86.4277 557.072 L131.762 579.658 Z" fill="#000000" fill-rule="nonzero" fill-opacity="1" /><path clip-path="url(#clip700)" d="M96.1831 480.965 Q103.069 480.965 110.816 483.179 Q118.522 485.351 124.753 488.794 Q130.942 492.237 135.041 496.746 Q139.099 501.255 139.099 505.559 Q139.099 508.305 137.582 510.355 Q136.025 512.363 133.442 513.47 Q130.819 514.576 127.95 515.109 Q125.04 515.642 121.883 515.642 Q117.17 515.642 112.046 514.617 Q106.881 513.593 102.209 511.871 Q97.4948 510.15 93.2319 507.731 Q88.928 505.313 85.8128 502.649 Q82.6567 499.943 80.8122 496.91 Q78.9676 493.877 78.9676 491.049 Q78.9676 488.999 79.8694 487.36 Q80.7302 485.679 82.2468 484.613 Q83.7224 483.548 85.4849 482.81 Q87.2475 482.031 89.2969 481.662 Q91.3054 481.293 92.986 481.129 Q94.6255 480.965 96.1831 480.965 M90.9775 486.499 Q88.887 486.499 87.3295 486.663 Q85.7309 486.827 84.1323 487.278 Q82.5337 487.729 81.6729 488.712 Q80.8122 489.655 80.8122 491.131 Q80.8122 495.435 89.6249 500.271 Q92.3711 501.829 96.1012 503.222 Q99.8312 504.616 101.594 505.108 Q103.356 505.6 107.701 506.748 L107.701 489.204 Q96.511 486.499 90.9775 486.499 M110.365 489.942 L110.365 507.403 Q120.613 510.109 127.007 510.109 Q132.582 510.109 134.918 508.961 Q137.213 507.772 137.213 505.559 Q137.213 503.018 134.672 500.64 Q132.09 498.263 127.417 495.844 Q121.351 492.647 110.365 489.942 Z" fill="#000000" fill-rule="nonzero" fill-opacity="1" /><polyline clip-path="url(#clip701)" style="stroke:#000000; stroke-linecap:round; stroke-linejoin:round; stroke-width:3.6; stroke-opacity:1; fill:none" stroke-dasharray="14, 9" points="-1256.65,962.566 3587.84,962.566 "/>
<polyline clip-path="url(#clip701)" style="stroke:#dc143c; stroke-linecap:round; stroke-linejoin:round; stroke-width:5.2; stroke-opacity:1; fill:none" points="403.883,220.975 410.839,89.4793 417.795,233.787 424.752,255.006 431.708,96.9231 438.664,260.146 445.621,250.325 452.577,194.594 459.533,277.004 466.489,306.778 473.446,315.068 480.402,318.955 487.358,376.033 494.314,373.877 501.271,386.886 508.227,359.263 515.183,423.268 522.139,424.23 529.096,448.799 536.052,477.851 543.008,498.402 549.965,530.274 556.921,550.016 563.877,542.702 570.833,536.055 577.79,535.964 584.746,546.473 591.702,563.159 598.658,580.164 605.615,606.322 612.571,631.681 619.527,706.44 626.483,707.897 633.44,656.594 640.396,635.057 647.352,628.142 654.309,632.669 661.265,640.241 668.221,652.622 675.177,680.194 682.134,673.562 689.09,746.653 696.046,758.232 703.002,753.882 709.959,736.783 716.915,740.292 723.871,734.963 730.827,738.265 737.784,764.365 744.74,779.725 751.696,797.746 758.653,867.561 765.609,828.554 772.565,853.521 779.521,797.333 786.478,809.365 793.434,815.351 800.39,801.419 807.346,856.055 814.303,832.599 821.259,849.807 828.215,871.604 835.171,841.562 842.128,902.095 849.084,836.447 856.04,870.555 862.997,858.262 869.953,838.861 876.909,914.194 883.865,845.034 890.822,874.397 897.778,871.607 904.734,859.055 911.69,899.034 918.647,855.259 925.603,894.737 932.559,867.267 939.515,862.745 946.472,896.699 953.428,857.041 960.384,882.747 967.34,873.345 974.297,865.631 981.253,889.374 988.209,864.681 995.166,879.86 1002.12,875.719 1009.08,869.378 1016.03,882.072 1022.99,869.347 1029.95,877.912 1036.9,874.265 1043.86,872.488 1050.82,878.694 1057.77,871.429 1064.73,876.998 1071.68,874.807 1078.64,873.204 1085.6,877.08 1092.55,872.793 1099.51,875.821 1106.47,874.868 1113.42,873.755 1120.38,876.54 1127.33,873.472 1134.29,875.846 1141.25,875.093 1148.2,874.254 1155.16,875.864 1162.12,874.168 1169.07,875.402 1176.03,874.729 1182.98,874.782 1189.94,875.153 1196.9,874.438 1203.85,875.193 1210.81,874.81 1217.77,874.741 1224.72,875.113 1231.68,874.602 1238.63,874.86 1245.59,874.912 1252.55,874.807 1259.5,874.965 1266.46,874.598 1273.42,875.2 1280.37,874.812 1287.33,874.82 1294.29,875.221 1301.24,874.73 1308.2,874.847 1315.15,874.976 1322.11,875.066 1329.07,874.713 1336.02,874.85 1342.98,874.955 1349.94,874.842 1356.89,874.925 1363.85,874.89 1370.8,874.889 1377.76,874.892 1384.72,874.923 1391.67,874.866 1398.63,874.952 1405.59,874.87 1412.54,874.929 1419.5,874.909 1426.45,874.891 1433.41,874.927 1440.37,874.87 1447.32,874.932 1454.28,874.869 1461.24,874.91 1468.19,874.887 1475.15,874.89 1482.1,874.897 1489.06,874.885 1496.02,874.9 1502.97,874.887 1509.93,874.902 1516.89,874.889 1523.84,874.906 1530.8,874.89 1537.75,874.907 1544.71,874.895 1551.67,874.901 1558.62,874.902 1565.58,874.894 1572.54,874.907 1579.49,874.89 1586.45,874.906 1593.4,874.892 1600.36,874.901 1607.32,874.896 1614.27,874.897 1621.23,874.899 1628.19,874.895 1635.14,874.901 1642.1,874.895 1649.05,874.901 1656.01,874.896 1662.97,874.901 1669.92,874.897 1676.88,874.9 1683.84,874.898 1690.79,874.898 1697.75,874.9 1704.7,874.896 1711.66,874.9 1718.62,874.896 1725.57,874.899 1732.53,874.896 1739.49,874.898 1746.44,874.897 1753.4,874.897 1760.35,874.898 1767.31,874.896 1774.27,874.898 1781.22,874.897 1788.18,874.899 1795.14,874.897 1802.09,874.899 1809.05,874.898 1816,874.898 1822.96,874.898 1829.92,874.898 1836.87,874.899 1843.83,874.897 1850.79,874.899 1857.74,874.897 1864.7,874.898 1871.66,874.898 1878.61,874.898 1885.57,874.898 1892.52,874.898 1899.48,874.898 1906.44,874.898 1913.39,874.898 1920.35,874.898 1927.31,874.898 "/>
<polyline clip-path="url(#clip701)" style="stroke:#1e90ff; stroke-linecap:round; stroke-linejoin:round; stroke-width:5.2; stroke-opacity:1; fill:none" points="403.883,194.925 410.839,130.035 417.795,161.217 424.752,103.932 431.708,206.259 438.664,275.207 445.621,256.597 452.577,203.271 459.533,289.322 466.489,182.456 473.446,294.502 480.402,291.413 487.358,340.962 494.314,272.933 501.271,295.955 508.227,288.49 515.183,328.784 522.139,306.126 529.096,357.187 536.052,372.147 543.008,295.783 549.965,309.266 556.921,379.317 563.877,398.233 570.833,356.507 577.79,212.97 584.746,315.671 591.702,358.026 598.658,405.402 605.615,482.66 612.571,488.738 619.527,496.667 626.483,505.84 633.44,514.363 640.396,521.802 647.352,518.778 654.309,502.701 661.265,510.084 668.221,334.584 675.177,344.97 682.134,592.848 689.09,609.661 696.046,624.089 703.002,638.448 709.959,654.029 716.915,670.919 723.871,679.597 730.827,686.655 737.784,694.328 744.74,702.351 751.696,710.746 758.653,719.274 765.609,728.272 772.565,738.502 779.521,750.506 786.478,765.057 793.434,782.216 800.39,802.682 807.346,822.642 814.303,845.083 821.259,863.164 828.215,880.201 835.171,892.419 842.128,899.653 849.084,905.26 856.04,911.714 862.997,915.074 869.953,921.052 876.909,928.019 883.865,935.331 890.822,944.823 897.778,956.75 904.734,972.384 "/>
<path clip-path="url(#clip700)" d="M1236.08 301.548 L1919.18 301.548 L1919.18 94.1881 L1236.08 94.1881  Z" fill="#000000" fill-rule="evenodd" fill-opacity="0"/>
<polyline clip-path="url(#clip700)" style="stroke:#000000; stroke-linecap:round; stroke-linejoin:round; stroke-width:4; stroke-opacity:0; fill:none" points="1236.08,301.548 1919.18,301.548 1919.18,94.1881 1236.08,94.1881 1236.08,301.548 "/>
<polyline clip-path="url(#clip700)" style="stroke:#000000; stroke-linecap:round; stroke-linejoin:round; stroke-width:3.6; stroke-opacity:1; fill:none" stroke-dasharray="14, 9" points="1254.02,146.028 1361.68,146.028 "/>
<path clip-path="url(#clip700)" d="M1387.03 130.021 L1387.03 137.382 L1395.8 137.382 L1395.8 140.692 L1387.03 140.692 L1387.03 154.766 Q1387.03 157.938 1387.88 158.841 Q1388.76 159.743 1391.43 159.743 L1395.8 159.743 L1395.8 163.308 L1391.43 163.308 Q1386.5 163.308 1384.62 161.479 Q1382.75 159.628 1382.75 154.766 L1382.75 140.692 L1379.62 140.692 L1379.62 137.382 L1382.75 137.382 L1382.75 130.021 L1387.03 130.021 Z" fill="#000000" fill-rule="nonzero" fill-opacity="1" /><path clip-path="url(#clip700)" d="M1411.45 140.368 Q1408.02 140.368 1406.03 143.054 Q1404.04 145.716 1404.04 150.368 Q1404.04 155.021 1406.01 157.706 Q1408 160.368 1411.45 160.368 Q1414.85 160.368 1416.84 157.683 Q1418.83 154.998 1418.83 150.368 Q1418.83 145.762 1416.84 143.077 Q1414.85 140.368 1411.45 140.368 M1411.45 136.757 Q1417 136.757 1420.18 140.368 Q1423.35 143.979 1423.35 150.368 Q1423.35 156.734 1420.18 160.368 Q1417 163.979 1411.45 163.979 Q1405.87 163.979 1402.7 160.368 Q1399.55 156.734 1399.55 150.368 Q1399.55 143.979 1402.7 140.368 Q1405.87 136.757 1411.45 136.757 Z" fill="#000000" fill-rule="nonzero" fill-opacity="1" /><path clip-path="url(#clip700)" d="M1430.41 127.29 L1434.67 127.29 L1434.67 163.308 L1430.41 163.308 L1430.41 127.29 Z" fill="#000000" fill-rule="nonzero" fill-opacity="1" /><path clip-path="url(#clip700)" d="M1465.75 149.28 L1465.75 151.364 L1446.17 151.364 Q1446.45 155.762 1448.81 158.077 Q1451.19 160.368 1455.43 160.368 Q1457.88 160.368 1460.18 159.766 Q1462.49 159.165 1464.76 157.961 L1464.76 161.989 Q1462.47 162.961 1460.06 163.47 Q1457.65 163.979 1455.18 163.979 Q1448.97 163.979 1445.34 160.368 Q1441.73 156.757 1441.73 150.6 Q1441.73 144.234 1445.15 140.507 Q1448.6 136.757 1454.43 136.757 Q1459.67 136.757 1462.7 140.137 Q1465.75 143.493 1465.75 149.28 M1461.49 148.03 Q1461.45 144.535 1459.53 142.452 Q1457.63 140.368 1454.48 140.368 Q1450.92 140.368 1448.76 142.382 Q1446.63 144.396 1446.31 148.054 L1461.49 148.03 Z" fill="#000000" fill-rule="nonzero" fill-opacity="1" /><path clip-path="url(#clip700)" d="M1487.77 141.364 Q1487.05 140.947 1486.19 140.762 Q1485.36 140.554 1484.34 140.554 Q1480.73 140.554 1478.79 142.915 Q1476.87 145.253 1476.87 149.651 L1476.87 163.308 L1472.58 163.308 L1472.58 137.382 L1476.87 137.382 L1476.87 141.41 Q1478.21 139.049 1480.36 137.915 Q1482.51 136.757 1485.59 136.757 Q1486.03 136.757 1486.56 136.827 Q1487.1 136.873 1487.74 136.989 L1487.77 141.364 Z" fill="#000000" fill-rule="nonzero" fill-opacity="1" /><path clip-path="url(#clip700)" d="M1504.02 150.276 Q1498.86 150.276 1496.86 151.456 Q1494.87 152.637 1494.87 155.484 Q1494.87 157.753 1496.36 159.095 Q1497.86 160.415 1500.43 160.415 Q1503.97 160.415 1506.1 157.915 Q1508.25 155.391 1508.25 151.225 L1508.25 150.276 L1504.02 150.276 M1512.51 148.516 L1512.51 163.308 L1508.25 163.308 L1508.25 159.373 Q1506.8 161.734 1504.62 162.868 Q1502.44 163.979 1499.3 163.979 Q1495.31 163.979 1492.95 161.757 Q1490.61 159.512 1490.61 155.762 Q1490.61 151.387 1493.53 149.165 Q1496.47 146.942 1502.28 146.942 L1508.25 146.942 L1508.25 146.526 Q1508.25 143.586 1506.31 141.989 Q1504.39 140.368 1500.89 140.368 Q1498.67 140.368 1496.56 140.901 Q1494.46 141.433 1492.51 142.498 L1492.51 138.563 Q1494.85 137.66 1497.05 137.22 Q1499.25 136.757 1501.33 136.757 Q1506.96 136.757 1509.74 139.674 Q1512.51 142.591 1512.51 148.516 Z" fill="#000000" fill-rule="nonzero" fill-opacity="1" /><path clip-path="url(#clip700)" d="M1542.84 147.66 L1542.84 163.308 L1538.58 163.308 L1538.58 147.799 Q1538.58 144.118 1537.14 142.29 Q1535.71 140.461 1532.84 140.461 Q1529.39 140.461 1527.4 142.66 Q1525.41 144.859 1525.41 148.655 L1525.41 163.308 L1521.12 163.308 L1521.12 137.382 L1525.41 137.382 L1525.41 141.41 Q1526.93 139.072 1528.99 137.915 Q1531.08 136.757 1533.79 136.757 Q1538.25 136.757 1540.55 139.535 Q1542.84 142.29 1542.84 147.66 Z" fill="#000000" fill-rule="nonzero" fill-opacity="1" /><path clip-path="url(#clip700)" d="M1569.99 138.378 L1569.99 142.359 Q1568.18 141.364 1566.36 140.878 Q1564.55 140.368 1562.7 140.368 Q1558.55 140.368 1556.26 143.007 Q1553.97 145.623 1553.97 150.368 Q1553.97 155.114 1556.26 157.753 Q1558.55 160.368 1562.7 160.368 Q1564.55 160.368 1566.36 159.882 Q1568.18 159.373 1569.99 158.378 L1569.99 162.313 Q1568.21 163.146 1566.29 163.563 Q1564.39 163.979 1562.23 163.979 Q1556.38 163.979 1552.93 160.299 Q1549.48 156.618 1549.48 150.368 Q1549.48 144.026 1552.95 140.392 Q1556.45 136.757 1562.51 136.757 Q1564.48 136.757 1566.36 137.174 Q1568.23 137.567 1569.99 138.378 Z" fill="#000000" fill-rule="nonzero" fill-opacity="1" /><path clip-path="url(#clip700)" d="M1599.57 149.28 L1599.57 151.364 L1579.99 151.364 Q1580.27 155.762 1582.63 158.077 Q1585.01 160.368 1589.25 160.368 Q1591.7 160.368 1593.99 159.766 Q1596.31 159.165 1598.58 157.961 L1598.58 161.989 Q1596.29 162.961 1593.88 163.47 Q1591.47 163.979 1588.99 163.979 Q1582.79 163.979 1579.16 160.368 Q1575.55 156.757 1575.55 150.6 Q1575.55 144.234 1578.97 140.507 Q1582.42 136.757 1588.25 136.757 Q1593.48 136.757 1596.52 140.137 Q1599.57 143.493 1599.57 149.28 M1595.31 148.03 Q1595.27 144.535 1593.35 142.452 Q1591.45 140.368 1588.3 140.368 Q1584.73 140.368 1582.58 142.382 Q1580.45 144.396 1580.13 148.054 L1595.31 148.03 Z" fill="#000000" fill-rule="nonzero" fill-opacity="1" /><polyline clip-path="url(#clip700)" style="stroke:#dc143c; stroke-linecap:round; stroke-linejoin:round; stroke-width:5.2; stroke-opacity:1; fill:none" points="1254.02,197.868 1361.68,197.868 "/>
<path clip-path="url(#clip700)" d="M1396.01 198.944 Q1397.51 199.454 1398.93 201.12 Q1400.36 202.787 1401.8 205.704 L1406.54 215.148 L1401.52 215.148 L1397.1 206.282 Q1395.38 202.81 1393.76 201.676 Q1392.17 200.542 1389.39 200.542 L1384.3 200.542 L1384.3 215.148 L1379.62 215.148 L1379.62 180.588 L1390.18 180.588 Q1396.1 180.588 1399.02 183.065 Q1401.93 185.542 1401.93 190.542 Q1401.93 193.806 1400.41 195.958 Q1398.9 198.111 1396.01 198.944 M1384.3 184.431 L1384.3 196.699 L1390.18 196.699 Q1393.56 196.699 1395.27 195.148 Q1397 193.574 1397 190.542 Q1397 187.509 1395.27 185.982 Q1393.56 184.431 1390.18 184.431 L1384.3 184.431 Z" fill="#000000" fill-rule="nonzero" fill-opacity="1" /><path clip-path="url(#clip700)" d="M1404.32 180.588 L1433.56 180.588 L1433.56 184.523 L1421.29 184.523 L1421.29 215.148 L1416.59 215.148 L1416.59 184.523 L1404.32 184.523 L1404.32 180.588 Z" fill="#000000" fill-rule="nonzero" fill-opacity="1" /><path clip-path="url(#clip700)" d="M1438.07 180.588 L1445.04 180.588 L1453.86 204.106 L1462.72 180.588 L1469.69 180.588 L1469.69 215.148 L1465.13 215.148 L1465.13 184.801 L1456.22 208.505 L1451.52 208.505 L1442.61 184.801 L1442.61 215.148 L1438.07 215.148 L1438.07 180.588 Z" fill="#000000" fill-rule="nonzero" fill-opacity="1" /><path clip-path="url(#clip700)" d="M1479.87 209.268 L1484.76 209.268 L1484.76 213.25 L1480.96 220.657 L1477.98 220.657 L1479.87 213.25 L1479.87 209.268 Z" fill="#000000" fill-rule="nonzero" fill-opacity="1" /><path clip-path="url(#clip700)" d="M1525.45 189.986 L1525.45 194.014 Q1523.65 193.088 1521.7 192.625 Q1519.76 192.162 1517.67 192.162 Q1514.5 192.162 1512.91 193.134 Q1511.33 194.107 1511.33 196.051 Q1511.33 197.532 1512.47 198.389 Q1513.6 199.222 1517.03 199.986 L1518.49 200.31 Q1523.02 201.282 1524.92 203.065 Q1526.84 204.824 1526.84 207.995 Q1526.84 211.606 1523.97 213.713 Q1521.12 215.819 1516.12 215.819 Q1514.04 215.819 1511.77 215.403 Q1509.53 215.009 1507.03 214.199 L1507.03 209.801 Q1509.39 211.028 1511.68 211.653 Q1513.97 212.255 1516.22 212.255 Q1519.23 212.255 1520.85 211.236 Q1522.47 210.194 1522.47 208.319 Q1522.47 206.583 1521.29 205.657 Q1520.13 204.731 1516.17 203.875 L1514.69 203.528 Q1510.73 202.694 1508.97 200.981 Q1507.21 199.245 1507.21 196.236 Q1507.21 192.579 1509.8 190.588 Q1512.4 188.597 1517.17 188.597 Q1519.53 188.597 1521.61 188.945 Q1523.69 189.292 1525.45 189.986 Z" fill="#000000" fill-rule="nonzero" fill-opacity="1" /><path clip-path="url(#clip700)" d="M1537.84 181.861 L1537.84 189.222 L1546.61 189.222 L1546.61 192.532 L1537.84 192.532 L1537.84 206.606 Q1537.84 209.778 1538.69 210.681 Q1539.57 211.583 1542.24 211.583 L1546.61 211.583 L1546.61 215.148 L1542.24 215.148 Q1537.3 215.148 1535.43 213.319 Q1533.55 211.468 1533.55 206.606 L1533.55 192.532 L1530.43 192.532 L1530.43 189.222 L1533.55 189.222 L1533.55 181.861 L1537.84 181.861 Z" fill="#000000" fill-rule="nonzero" fill-opacity="1" /><path clip-path="url(#clip700)" d="M1551.77 204.917 L1551.77 189.222 L1556.03 189.222 L1556.03 204.755 Q1556.03 208.435 1557.47 210.287 Q1558.9 212.116 1561.77 212.116 Q1565.22 212.116 1567.21 209.917 Q1569.23 207.718 1569.23 203.921 L1569.23 189.222 L1573.48 189.222 L1573.48 215.148 L1569.23 215.148 L1569.23 211.167 Q1567.67 213.528 1565.61 214.685 Q1563.58 215.819 1560.87 215.819 Q1556.4 215.819 1554.09 213.042 Q1551.77 210.264 1551.77 204.917 M1562.49 188.597 L1562.49 188.597 Z" fill="#000000" fill-rule="nonzero" fill-opacity="1" /><path clip-path="url(#clip700)" d="M1600.92 190.218 L1600.92 194.199 Q1599.11 193.204 1597.28 192.718 Q1595.48 192.208 1593.62 192.208 Q1589.48 192.208 1587.19 194.847 Q1584.9 197.463 1584.9 202.208 Q1584.9 206.954 1587.19 209.593 Q1589.48 212.208 1593.62 212.208 Q1595.48 212.208 1597.28 211.722 Q1599.11 211.213 1600.92 210.218 L1600.92 214.153 Q1599.13 214.986 1597.21 215.403 Q1595.31 215.819 1593.16 215.819 Q1587.3 215.819 1583.86 212.139 Q1580.41 208.458 1580.41 202.208 Q1580.41 195.866 1583.88 192.232 Q1587.37 188.597 1593.44 188.597 Q1595.41 188.597 1597.28 189.014 Q1599.16 189.407 1600.92 190.218 Z" fill="#000000" fill-rule="nonzero" fill-opacity="1" /><path clip-path="url(#clip700)" d="M1608.16 179.13 L1612.44 179.13 L1612.44 200.403 L1625.15 189.222 L1630.59 189.222 L1616.84 201.352 L1631.17 215.148 L1625.61 215.148 L1612.44 202.486 L1612.44 215.148 L1608.16 215.148 L1608.16 179.13 Z" fill="#000000" fill-rule="nonzero" fill-opacity="1" /><path clip-path="url(#clip700)" d="M1662.63 202.116 Q1657.47 202.116 1655.48 203.296 Q1653.48 204.477 1653.48 207.324 Q1653.48 209.593 1654.97 210.935 Q1656.47 212.255 1659.04 212.255 Q1662.58 212.255 1664.71 209.755 Q1666.86 207.231 1666.86 203.065 L1666.86 202.116 L1662.63 202.116 M1671.12 200.356 L1671.12 215.148 L1666.86 215.148 L1666.86 211.213 Q1665.41 213.574 1663.23 214.708 Q1661.05 215.819 1657.91 215.819 Q1653.92 215.819 1651.56 213.597 Q1649.23 211.352 1649.23 207.602 Q1649.23 203.227 1652.14 201.005 Q1655.08 198.782 1660.89 198.782 L1666.86 198.782 L1666.86 198.366 Q1666.86 195.426 1664.92 193.829 Q1663 192.208 1659.5 192.208 Q1657.28 192.208 1655.17 192.741 Q1653.07 193.273 1651.12 194.338 L1651.12 190.403 Q1653.46 189.5 1655.66 189.06 Q1657.86 188.597 1659.94 188.597 Q1665.57 188.597 1668.35 191.514 Q1671.12 194.431 1671.12 200.356 Z" fill="#000000" fill-rule="nonzero" fill-opacity="1" /><path clip-path="url(#clip700)" d="M1684.11 181.861 L1684.11 189.222 L1692.88 189.222 L1692.88 192.532 L1684.11 192.532 L1684.11 206.606 Q1684.11 209.778 1684.97 210.681 Q1685.85 211.583 1688.51 211.583 L1692.88 211.583 L1692.88 215.148 L1688.51 215.148 Q1683.58 215.148 1681.7 213.319 Q1679.83 211.468 1679.83 206.606 L1679.83 192.532 L1676.7 192.532 L1676.7 189.222 L1679.83 189.222 L1679.83 181.861 L1684.11 181.861 Z" fill="#000000" fill-rule="nonzero" fill-opacity="1" /><path clip-path="url(#clip700)" d="M1718.18 211.213 L1734.5 211.213 L1734.5 215.148 L1712.56 215.148 L1712.56 211.213 Q1715.22 208.458 1719.8 203.829 Q1724.41 199.176 1725.59 197.833 Q1727.84 195.31 1728.72 193.574 Q1729.62 191.815 1729.62 190.125 Q1729.62 187.37 1727.67 185.634 Q1725.75 183.898 1722.65 183.898 Q1720.45 183.898 1718 184.662 Q1715.57 185.426 1712.79 186.977 L1712.79 182.255 Q1715.61 181.12 1718.07 180.542 Q1720.52 179.963 1722.56 179.963 Q1727.93 179.963 1731.12 182.648 Q1734.32 185.333 1734.32 189.824 Q1734.32 191.954 1733.51 193.875 Q1732.72 195.773 1730.61 198.366 Q1730.03 199.037 1726.93 202.255 Q1723.83 205.449 1718.18 211.213 Z" fill="#000000" fill-rule="nonzero" fill-opacity="1" /><path clip-path="url(#clip700)" d="M1748.35 211.213 L1764.66 211.213 L1764.66 215.148 L1742.72 215.148 L1742.72 211.213 Q1745.38 208.458 1749.97 203.829 Q1754.57 199.176 1755.75 197.833 Q1758 195.31 1758.88 193.574 Q1759.78 191.815 1759.78 190.125 Q1759.78 187.37 1757.84 185.634 Q1755.91 183.898 1752.81 183.898 Q1750.61 183.898 1748.16 184.662 Q1745.73 185.426 1742.95 186.977 L1742.95 182.255 Q1745.78 181.12 1748.23 180.542 Q1750.68 179.963 1752.72 179.963 Q1758.09 179.963 1761.28 182.648 Q1764.48 185.333 1764.48 189.824 Q1764.48 191.954 1763.67 193.875 Q1762.88 195.773 1760.78 198.366 Q1760.2 199.037 1757.1 202.255 Q1753.99 205.449 1748.35 211.213 Z" fill="#000000" fill-rule="nonzero" fill-opacity="1" /><path clip-path="url(#clip700)" d="M1775.29 211.213 L1782.93 211.213 L1782.93 184.847 L1774.62 186.514 L1774.62 182.255 L1782.88 180.588 L1787.56 180.588 L1787.56 211.213 L1795.2 211.213 L1795.2 215.148 L1775.29 215.148 L1775.29 211.213 Z" fill="#000000" fill-rule="nonzero" fill-opacity="1" /><polyline clip-path="url(#clip700)" style="stroke:#1e90ff; stroke-linecap:round; stroke-linejoin:round; stroke-width:5.2; stroke-opacity:1; fill:none" points="1254.02,249.708 1361.68,249.708 "/>
<path clip-path="url(#clip700)" d="M1396.01 250.784 Q1397.51 251.294 1398.93 252.96 Q1400.36 254.627 1401.8 257.544 L1406.54 266.988 L1401.52 266.988 L1397.1 258.122 Q1395.38 254.65 1393.76 253.516 Q1392.17 252.382 1389.39 252.382 L1384.3 252.382 L1384.3 266.988 L1379.62 266.988 L1379.62 232.428 L1390.18 232.428 Q1396.1 232.428 1399.02 234.905 Q1401.93 237.382 1401.93 242.382 Q1401.93 245.646 1400.41 247.798 Q1398.9 249.951 1396.01 250.784 M1384.3 236.271 L1384.3 248.539 L1390.18 248.539 Q1393.56 248.539 1395.27 246.988 Q1397 245.414 1397 242.382 Q1397 239.349 1395.27 237.822 Q1393.56 236.271 1390.18 236.271 L1384.3 236.271 Z" fill="#000000" fill-rule="nonzero" fill-opacity="1" /><path clip-path="url(#clip700)" d="M1417.24 236.271 L1417.24 263.146 L1422.88 263.146 Q1430.04 263.146 1433.35 259.905 Q1436.68 256.664 1436.68 249.673 Q1436.68 242.729 1433.35 239.511 Q1430.04 236.271 1422.88 236.271 L1417.24 236.271 M1412.56 232.428 L1422.17 232.428 Q1432.21 232.428 1436.91 236.618 Q1441.61 240.785 1441.61 249.673 Q1441.61 258.609 1436.89 262.798 Q1432.17 266.988 1422.17 266.988 L1412.56 266.988 L1412.56 232.428 Z" fill="#000000" fill-rule="nonzero" fill-opacity="1" /><path clip-path="url(#clip700)" d="M1449.06 232.428 L1456.03 232.428 L1464.85 255.946 L1473.72 232.428 L1480.68 232.428 L1480.68 266.988 L1476.12 266.988 L1476.12 236.641 L1467.21 260.345 L1462.51 260.345 L1453.6 236.641 L1453.6 266.988 L1449.06 266.988 L1449.06 232.428 Z" fill="#000000" fill-rule="nonzero" fill-opacity="1" /><path clip-path="url(#clip700)" d="M1490.87 261.108 L1495.75 261.108 L1495.75 265.09 L1491.96 272.497 L1488.97 272.497 L1490.87 265.09 L1490.87 261.108 Z" fill="#000000" fill-rule="nonzero" fill-opacity="1" /><path clip-path="url(#clip700)" d="M1538.58 242.058 L1538.58 246.039 Q1536.77 245.044 1534.94 244.558 Q1533.14 244.048 1531.29 244.048 Q1527.14 244.048 1524.85 246.687 Q1522.56 249.303 1522.56 254.048 Q1522.56 258.794 1524.85 261.433 Q1527.14 264.048 1531.29 264.048 Q1533.14 264.048 1534.94 263.562 Q1536.77 263.053 1538.58 262.058 L1538.58 265.993 Q1536.8 266.826 1534.87 267.243 Q1532.98 267.659 1530.82 267.659 Q1524.97 267.659 1521.52 263.979 Q1518.07 260.298 1518.07 254.048 Q1518.07 247.706 1521.54 244.072 Q1525.04 240.437 1531.1 240.437 Q1533.07 240.437 1534.94 240.854 Q1536.82 241.247 1538.58 242.058 Z" fill="#000000" fill-rule="nonzero" fill-opacity="1" /><path clip-path="url(#clip700)" d="M1556.03 244.048 Q1552.61 244.048 1550.61 246.734 Q1548.62 249.396 1548.62 254.048 Q1548.62 258.701 1550.59 261.386 Q1552.58 264.048 1556.03 264.048 Q1559.43 264.048 1561.42 261.363 Q1563.42 258.678 1563.42 254.048 Q1563.42 249.442 1561.42 246.757 Q1559.43 244.048 1556.03 244.048 M1556.03 240.437 Q1561.59 240.437 1564.76 244.048 Q1567.93 247.659 1567.93 254.048 Q1567.93 260.414 1564.76 264.048 Q1561.59 267.659 1556.03 267.659 Q1550.45 267.659 1547.28 264.048 Q1544.13 260.414 1544.13 254.048 Q1544.13 247.659 1547.28 244.048 Q1550.45 240.437 1556.03 240.437 Z" fill="#000000" fill-rule="nonzero" fill-opacity="1" /><path clip-path="url(#clip700)" d="M1596.54 251.34 L1596.54 266.988 L1592.28 266.988 L1592.28 251.479 Q1592.28 247.798 1590.85 245.97 Q1589.41 244.141 1586.54 244.141 Q1583.09 244.141 1581.1 246.34 Q1579.11 248.539 1579.11 252.335 L1579.11 266.988 L1574.83 266.988 L1574.83 241.062 L1579.11 241.062 L1579.11 245.09 Q1580.64 242.752 1582.7 241.595 Q1584.78 240.437 1587.49 240.437 Q1591.96 240.437 1594.25 243.215 Q1596.54 245.97 1596.54 251.34 Z" fill="#000000" fill-rule="nonzero" fill-opacity="1" /><path clip-path="url(#clip700)" d="M1601.98 241.062 L1606.49 241.062 L1614.6 262.821 L1622.7 241.062 L1627.21 241.062 L1617.49 266.988 L1611.7 266.988 L1601.98 241.062 Z" fill="#000000" fill-rule="nonzero" fill-opacity="1" /><path clip-path="url(#clip700)" d="M1655.27 252.96 L1655.27 255.044 L1635.68 255.044 Q1635.96 259.442 1638.32 261.757 Q1640.71 264.048 1644.94 264.048 Q1647.4 264.048 1649.69 263.446 Q1652 262.845 1654.27 261.641 L1654.27 265.669 Q1651.98 266.641 1649.57 267.15 Q1647.17 267.659 1644.69 267.659 Q1638.48 267.659 1634.85 264.048 Q1631.24 260.437 1631.24 254.28 Q1631.24 247.914 1634.67 244.187 Q1638.11 240.437 1643.95 240.437 Q1649.18 240.437 1652.21 243.817 Q1655.27 247.173 1655.27 252.96 M1651.01 251.71 Q1650.96 248.215 1649.04 246.132 Q1647.14 244.048 1643.99 244.048 Q1640.43 244.048 1638.28 246.062 Q1636.15 248.076 1635.82 251.734 L1651.01 251.71 Z" fill="#000000" fill-rule="nonzero" fill-opacity="1" /><path clip-path="url(#clip700)" d="M1677.28 245.044 Q1676.56 244.627 1675.71 244.442 Q1674.87 244.234 1673.85 244.234 Q1670.24 244.234 1668.3 246.595 Q1666.38 248.933 1666.38 253.331 L1666.38 266.988 L1662.1 266.988 L1662.1 241.062 L1666.38 241.062 L1666.38 245.09 Q1667.72 242.729 1669.87 241.595 Q1672.03 240.437 1675.1 240.437 Q1675.54 240.437 1676.08 240.507 Q1676.61 240.553 1677.26 240.669 L1677.28 245.044 Z" fill="#000000" fill-rule="nonzero" fill-opacity="1" /><path clip-path="url(#clip700)" d="M1697.97 253.724 Q1697.97 249.095 1696.05 246.548 Q1694.16 244.002 1690.71 244.002 Q1687.28 244.002 1685.36 246.548 Q1683.46 249.095 1683.46 253.724 Q1683.46 258.331 1685.36 260.877 Q1687.28 263.423 1690.71 263.423 Q1694.16 263.423 1696.05 260.877 Q1697.97 258.331 1697.97 253.724 M1702.23 263.771 Q1702.23 270.391 1699.29 273.608 Q1696.35 276.849 1690.29 276.849 Q1688.04 276.849 1686.05 276.502 Q1684.06 276.178 1682.19 275.483 L1682.19 271.34 Q1684.06 272.358 1685.89 272.845 Q1687.72 273.331 1689.62 273.331 Q1693.81 273.331 1695.89 271.132 Q1697.97 268.956 1697.97 264.534 L1697.97 262.428 Q1696.66 264.72 1694.6 265.854 Q1692.54 266.988 1689.66 266.988 Q1684.9 266.988 1681.98 263.354 Q1679.06 259.72 1679.06 253.724 Q1679.06 247.706 1681.98 244.072 Q1684.9 240.437 1689.66 240.437 Q1692.54 240.437 1694.6 241.572 Q1696.66 242.706 1697.97 244.997 L1697.97 241.062 L1702.23 241.062 L1702.23 263.771 Z" fill="#000000" fill-rule="nonzero" fill-opacity="1" /><path clip-path="url(#clip700)" d="M1733.18 252.96 L1733.18 255.044 L1713.6 255.044 Q1713.88 259.442 1716.24 261.757 Q1718.62 264.048 1722.86 264.048 Q1725.31 264.048 1727.6 263.446 Q1729.92 262.845 1732.19 261.641 L1732.19 265.669 Q1729.9 266.641 1727.49 267.15 Q1725.08 267.659 1722.6 267.659 Q1716.4 267.659 1712.77 264.048 Q1709.16 260.437 1709.16 254.28 Q1709.16 247.914 1712.58 244.187 Q1716.03 240.437 1721.86 240.437 Q1727.1 240.437 1730.13 243.817 Q1733.18 247.173 1733.18 252.96 M1728.92 251.71 Q1728.88 248.215 1726.96 246.132 Q1725.06 244.048 1721.91 244.048 Q1718.35 244.048 1716.19 246.062 Q1714.06 248.076 1713.74 251.734 L1728.92 251.71 Z" fill="#000000" fill-rule="nonzero" fill-opacity="1" /><path clip-path="url(#clip700)" d="M1757.23 244.997 L1757.23 230.97 L1761.49 230.97 L1761.49 266.988 L1757.23 266.988 L1757.23 263.099 Q1755.89 265.414 1753.83 266.548 Q1751.79 267.659 1748.92 267.659 Q1744.22 267.659 1741.26 263.909 Q1738.32 260.159 1738.32 254.048 Q1738.32 247.937 1741.26 244.187 Q1744.22 240.437 1748.92 240.437 Q1751.79 240.437 1753.83 241.572 Q1755.89 242.683 1757.23 244.997 M1742.72 254.048 Q1742.72 258.747 1744.64 261.433 Q1746.59 264.095 1749.97 264.095 Q1753.35 264.095 1755.29 261.433 Q1757.23 258.747 1757.23 254.048 Q1757.23 249.349 1755.29 246.687 Q1753.35 244.002 1749.97 244.002 Q1746.59 244.002 1744.64 246.687 Q1742.72 249.349 1742.72 254.048 Z" fill="#000000" fill-rule="nonzero" fill-opacity="1" /><path clip-path="url(#clip700)" d="M1797.12 253.956 Q1791.96 253.956 1789.97 255.136 Q1787.97 256.317 1787.97 259.164 Q1787.97 261.433 1789.46 262.775 Q1790.96 264.095 1793.53 264.095 Q1797.07 264.095 1799.2 261.595 Q1801.35 259.071 1801.35 254.905 L1801.35 253.956 L1797.12 253.956 M1805.61 252.196 L1805.61 266.988 L1801.35 266.988 L1801.35 263.053 Q1799.9 265.414 1797.72 266.548 Q1795.54 267.659 1792.4 267.659 Q1788.41 267.659 1786.05 265.437 Q1783.72 263.192 1783.72 259.442 Q1783.72 255.067 1786.63 252.845 Q1789.57 250.622 1795.38 250.622 L1801.35 250.622 L1801.35 250.206 Q1801.35 247.266 1799.41 245.669 Q1797.49 244.048 1793.99 244.048 Q1791.77 244.048 1789.66 244.581 Q1787.56 245.113 1785.61 246.178 L1785.61 242.243 Q1787.95 241.34 1790.15 240.9 Q1792.35 240.437 1794.43 240.437 Q1800.06 240.437 1802.84 243.354 Q1805.61 246.271 1805.61 252.196 Z" fill="#000000" fill-rule="nonzero" fill-opacity="1" /><path clip-path="url(#clip700)" d="M1818.6 233.701 L1818.6 241.062 L1827.37 241.062 L1827.37 244.372 L1818.6 244.372 L1818.6 258.446 Q1818.6 261.618 1819.46 262.521 Q1820.34 263.423 1823 263.423 L1827.37 263.423 L1827.37 266.988 L1823 266.988 Q1818.07 266.988 1816.19 265.159 Q1814.32 263.308 1814.32 258.446 L1814.32 244.372 L1811.19 244.372 L1811.19 241.062 L1814.32 241.062 L1814.32 233.701 L1818.6 233.701 Z" fill="#000000" fill-rule="nonzero" fill-opacity="1" /><path clip-path="url(#clip700)" d="M1847.46 232.428 L1869.69 232.428 L1869.69 234.419 L1857.14 266.988 L1852.26 266.988 L1864.06 236.363 L1847.46 236.363 L1847.46 232.428 Z" fill="#000000" fill-rule="nonzero" fill-opacity="1" /><path clip-path="url(#clip700)" d="M1891.65 236.502 L1879.85 254.951 L1891.65 254.951 L1891.65 236.502 M1890.43 232.428 L1896.31 232.428 L1896.31 254.951 L1901.24 254.951 L1901.24 258.84 L1896.31 258.84 L1896.31 266.988 L1891.65 266.988 L1891.65 258.84 L1876.05 258.84 L1876.05 254.326 L1890.43 232.428 Z" fill="#000000" fill-rule="nonzero" fill-opacity="1" /></svg>
